<svg xmlns="http://www.w3.org/2000/svg" viewBox="0 0 256 256" fill="none" shape-rendering="auto"><desc>"Croodles - Doodle your face" by "vijay verma", licensed under "CC BY 4.0". / Remix of the original. - Created with dicebear.com</desc><metadata xmlns:dc="http://purl.org/dc/elements/1.1/" xmlns:cc="http://creativecommons.org/ns#" xmlns:rdf="http://www.w3.org/1999/02/22-rdf-syntax-ns#"><rdf:RDF><cc:Work><dc:title>Croodles - Doodle your face</dc:title><dc:creator><cc:Agent rdf:about="https://vjy.me/"><dc:title>vijay verma</dc:title></cc:Agent></dc:creator><dc:source>https://www.figma.com/community/file/966199982810283152</dc:source><cc:license rdf:resource="https://creativecommons.org/licenses/by/4.0/" /></cc:Work></rdf:RDF></metadata><mask id="viewboxMask"><rect width="256" height="256" rx="0" ry="0" x="0" y="0" fill="#fff" /></mask><g mask="url(#viewboxMask)"><path d="M73.7 93.5a45.6 45.6 0 0 1 7.2-17c3-5 9-9.5 16.4-13a90.1 90.1 0 0 1 26.4-7.7c19-2.5 40.2.5 53.5 14l.6.4c7.8 7.5 9.5 18.5 9.2 30.3v1.3c1.5.3 3.3 1.3 4.8 3.2 1.8 2.4 2.8 6.3 1.8 12a21.4 21.4 0 0 1-2.9 8.1l-.8 1.5c-.8 1.4-1.6 2.9-2.7 3.8a4 4 0 0 1-3 .9l-.5 6.4c-2.2 37-4.7 59.8-22.1 79.2-16.9 18.7-43.6 13.3-57 0-10.7-10.7-28.5-33-32-83.4-1.9.3-3.7-1-5-3-1.6-2.4-3-6.1-4.1-11.8-1-5.5-.3-9.4 1.5-12a8.2 8.2 0 0 1 6.8-3.4h.5c.3-3.7.8-7 1.4-9.8Z" fill="#ffffff"/><g stroke="#000" stroke-width="3" stroke-linecap="round" stroke-linejoin="round"><path d="M186.4 102.2c2.3 0 8.3 2.7 6.4 13.8-.9 4.9-2 6-3.7 9.2-1.5 2.8-2.7 4.9-5.5 3.6M70.4 103.8c-3.8 0-9 3.2-7 13.8 2.2 11.4 5.6 14.4 7.9 13.7"/><path d="M82.2 74.4C75 84.8 70.4 94 72.7 131c3.2 51.9 21.4 74.5 32.2 85.2 13.1 13 39.3 18 55.7 0 17.3-19.2 19.8-41.8 22-79.2 1.5-24.9 9.4-52.8-5.4-67"/></g><g transform="translate(117 131)"><path d="M13.3 12C15 28 20.7 22.4 23 31.3c2 7-9.2 7.7-12.1 5.4" stroke="#000" stroke-width="3" stroke-linecap="round" stroke-linejoin="round"/></g><g transform="translate(63 147)"></g><g transform="translate(100 194)"><path d="M44.4 6.5c-4.2 2-20.4 6.7-30.4 4.2 6.2 10 35 11.4 39.6 2.5 5-9.4-4.1-9.3-9.2-6.7Z" stroke="#000" stroke-width="3" stroke-linecap="round" stroke-linejoin="round"/></g><g transform="translate(0 -34)"><path d="M86.3 106.7c-5.6-4.5-4.8-3.7-10-5.3M89.5 94.4c-2.8-1.2-4.7-3.4-6.7-5.6M190 108.5s-6.2-.3-12 2M181.4 93.6s-5.3 3.1-9 8.2M171 82.6s-4.4 4.2-6.8 10M158.1 75.5s-3.5 5-4.7 11.2M142.8 73.2s-2.6 5.5-2.8 11.8M124.4 72s-1.3 6 0 12.1M107.5 73.9s2.4 5.6 7 9.8M95 80.2s3 4.3 7.4 9" stroke="#699bf7" stroke-width="3" stroke-linecap="round" stroke-linejoin="round"/></g><g transform="translate(72 160)"></g><g transform="translate(72 89)"><path fill-rule="evenodd" clip-rule="evenodd" d="M36.8 29v-.2c0-.8-.7-1.5-1.5-1.4-1.4 0-3.5.5-5.3 1.4a7.8 7.8 0 0 0-4.3 5.4c-.5 3 0 5.3 1 6.9 1 1.5 2.4 2.3 3.1 2.7a13.6 13.6 0 0 0 5.4.6c1.2 0 2.5-.4 3.6-1.1 1.1-.8 2-2 2.3-3.6a12 12 0 0 0-.7-7 7 7 0 0 0-3-3.6l-.6-.1Zm-7.3 4a4.1 4.1 0 0 0-.9 2.2l.4-1 .5-1.1Zm1.3 4.4-.1.3.2.2v-.5Zm3-2.1v.5-.5Zm-1.8-3c.7-.2 1.6.1 2 .9l-.8.3.7-.3a4.6 4.6 0 0 1 .1.2 6.9 6.9 0 0 1 .4 1.5c0 .3 0 .8-.2 1.2-.5 1-1.4 1.3-2 1.3-.8 0-2-.2-2.4-1.4a2 2 0 0 1 0-1.5 2 2 0 0 1 1-1l.3-.2c.1-.4.4-.7.9-1Zm-.6 2.8ZM86 27V27c0-.9-.7-1.5-1.6-1.4-1.3 0-3.4.4-5.2 1.4a7.8 7.8 0 0 0-4.3 5.4c-.6 3 0 5.2 1 6.8 1 1.6 2.4 2.4 3.1 2.8a13.6 13.6 0 0 0 5.4.6c1.2-.1 2.5-.4 3.6-1.2 1.1-.7 2-2 2.3-3.6a12 12 0 0 0-.7-6.9 7 7 0 0 0-3-3.6l-.6-.1Zm-7.4 4.1a4.1 4.1 0 0 0-.8 2.1l.4-1c0-.4.2-.7.4-1Zm1.4 4.4-.2.3.3.2-.1-.5Zm3-2.1-.1.2v.2l.1-.4Zm.9 4a1.5 1.5 0 1 1 3 0 1.5 1.5 0 0 1-3 0Zm-2.7-7c.7-.3 1.6 0 2 .8l-.8.4.7-.4a4.6 4.6 0 0 1 .1.3 6.8 6.8 0 0 1 .4 1.5c0 .2 0 .7-.3 1.2-.4 1-1.3 1.3-2 1.3s-1.8-.3-2.3-1.4a2 2 0 0 1 0-1.5 2 2 0 0 1 1-1l.3-.2c.1-.4.4-.8.9-1Zm-.6 2.8Z" fill="#000"/><path d="M27.5 21.8c1-1.3 3.8-3.4 6-2M78 18c1-1.3 4.2-1.4 4.7 0" stroke="#000" stroke-width="3" stroke-linecap="round" stroke-linejoin="round"/></g></g></svg>